<?xml version="1.0" encoding="UTF-8" standalone="no"?>
<svg width="79px" height="26px" viewBox="0 0 79 26" version="1.1" xmlns="http://www.w3.org/2000/svg" xmlns:xlink="http://www.w3.org/1999/xlink">
    <!-- Generator: Sketch 3.7.2 (28276) - http://www.bohemiancoding.com/sketch -->
    <title>Group 5</title>
    <desc>Created with Sketch.</desc>
    <defs></defs>
    <g id="Page-1" stroke="none" stroke-width="1" fill="none" fill-rule="evenodd">
        <g id="Group-5" fill="#FFFFFF">
            <path d="M7.94762389,3.25840988 C7.62298826,3.25840988 7.36647814,3.32389136 7.17713401,3.45453333 C6.98810972,3.5854963 6.83938502,3.74887901 6.73127976,3.94500247 C6.62317449,4.14144691 6.5560085,4.36100247 6.52850243,4.60366914 C6.50163603,4.84665679 6.48820283,5.08001481 6.48820283,5.30438519 L6.48820283,9.56453333 C6.48820283,10.2559407 6.38425547,10.8122123 6.17732024,11.2323852 C5.96974534,11.652879 5.72666842,11.9799654 5.44776964,12.2130025 C5.16823117,12.4473235 4.87557935,12.6103852 4.56949433,12.7037926 C4.26276964,12.7972 4.01041741,12.8536938 3.81307733,12.8716691 L3.81307733,12.9557679 C4.01041741,12.9750272 4.26276964,13.0353728 4.56949433,13.1380889 C4.87557935,13.2411259 5.16823117,13.4096444 5.44776964,13.6426815 C5.72666842,13.8763605 5.96974534,14.1845086 6.17732024,14.5677679 C6.38425547,14.9507062 6.48820283,15.4411753 6.48820283,16.0388543 L6.48820283,20.5236938 C6.48820283,20.7288049 6.50163603,20.9531753 6.52850243,21.195842 C6.5560085,21.4385086 6.62317449,21.6587062 6.73127976,21.8548296 C6.83938502,22.0509531 6.98810972,22.2143358 7.17713401,22.3452988 C7.36647814,22.4759407 7.62298826,22.5414222 7.94762389,22.5414222 L9.40704494,22.5414222 L9.40704494,25.6803605 L5.97454291,25.6803605 C5.66781822,25.6803605 5.32111377,25.6010765 4.93410972,25.4425086 C4.54646599,25.2832988 4.18632834,25.0502617 3.85305709,24.7417926 C3.51946599,24.4333235 3.23608947,24.0410765 3.00196802,23.5647309 C2.76752672,23.0880642 2.65078583,22.5317926 2.65078583,21.896558 L2.65078583,16.4593481 C2.65078583,16.0298667 2.56027166,15.6655457 2.38020283,15.3663852 C2.20013401,15.0678667 1.98392348,14.8293728 1.73189109,14.6518667 C1.47889919,14.4740395 1.20895587,14.3433975 0.921101619,14.2592988 C0.63292753,14.174879 0.389850607,14.1331506 0.191231174,14.1331506 L0.191231174,11.6946074 C0.389850607,11.6946074 0.63292753,11.652879 0.921101619,11.5684593 C1.20895587,11.4843605 1.47889919,11.3444099 1.73189109,11.1482864 C1.98392348,10.951842 2.20013401,10.690558 2.38020283,10.3631506 C2.56027166,10.0363852 2.65078583,9.63932346 2.65078583,9.17196543 L2.65078583,3.90295309 C2.65078583,3.26771852 2.76752672,2.7117679 3.00196802,2.23542222 C3.23608947,1.75875556 3.51946599,1.36618765 3.85305709,1.05803951 C4.18632834,0.749891358 4.54646599,0.516533333 4.93410972,0.357323457 C5.32111377,0.199076543 5.66781822,0.119150617 5.97454291,0.119150617 L9.40704494,0.119150617 L9.40704494,3.25840988 L7.94762389,3.25840988 Z M69.4913425,3.25840988 L69.4913425,0.119150617 L72.9235247,0.119150617 C73.2302494,0.119150617 73.5769538,0.199076543 73.9642777,0.357323457 C74.3516016,0.516533333 74.7120591,0.749891358 75.0450105,1.05803951 C75.3789215,1.36618765 75.6619781,1.75875556 75.8964194,2.23542222 C76.1305409,2.7117679 76.2476016,3.26771852 76.2476016,3.90295309 L76.2476016,9.17196543 C76.2476016,9.63932346 76.337796,10.0363852 76.5178648,10.3631506 C76.6982534,10.690558 76.9141441,10.951842 77.1664964,11.1482864 C77.4191684,11.3444099 77.6891117,11.4843605 77.9772858,11.5684593 C78.2654599,11.652879 78.5085368,11.6946074 78.7068364,11.6946074 L78.7068364,14.1331506 C78.5085368,14.1331506 78.2654599,14.174879 77.9772858,14.2592988 C77.6891117,14.3433975 77.4191684,14.4740395 77.1664964,14.6518667 C76.9141441,14.8293728 76.6982534,15.0678667 76.5178648,15.3663852 C76.337796,15.6655457 76.2476016,16.0298667 76.2476016,16.4593481 L76.2476016,21.896558 C76.2476016,22.5317926 76.1305409,23.0880642 75.8964194,23.5647309 C75.6619781,24.0410765 75.3789215,24.4333235 75.0450105,24.7417926 C74.7120591,25.0502617 74.3516016,25.2832988 73.9642777,25.4425086 C73.5769538,25.6010765 73.2302494,25.6803605 72.9235247,25.6803605 L69.4913425,25.6803605 L69.4913425,22.5414222 L70.9507636,22.5414222 C71.2750794,22.5414222 71.5315895,22.4759407 71.7209336,22.3452988 C71.9099579,22.2143358 72.0590024,22.0509531 72.1667879,21.8548296 C72.2748931,21.6587062 72.3426988,21.4385086 72.3695652,21.195842 C72.3964316,20.9531753 72.4101846,20.7288049 72.4101846,20.5236938 L72.4101846,16.0388543 C72.4101846,15.4411753 72.514132,14.9507062 72.7207474,14.5677679 C72.9283223,14.1845086 73.1713992,13.8763605 73.4506178,13.6426815 C73.7298364,13.4096444 74.0228081,13.2411259 74.3288931,13.1380889 C74.6356178,13.0353728 74.8876502,12.9750272 75.0853101,12.9557679 L75.0853101,12.8716691 C74.8876502,12.8536938 74.6356178,12.7972 74.3288931,12.7037926 C74.0228081,12.6103852 73.7298364,12.4473235 73.4506178,12.2130025 C73.1713992,11.9799654 72.9283223,11.652879 72.7207474,11.2323852 C72.514132,10.8122123 72.4101846,10.2559407 72.4101846,9.56453333 L72.4101846,5.30438519 C72.4101846,5.08001481 72.3964316,4.84665679 72.3695652,4.60366914 C72.3426988,4.36100247 72.2748931,4.14144691 72.1667879,3.94500247 C72.0590024,3.74887901 71.9099579,3.5854963 71.7209336,3.45453333 C71.5315895,3.32389136 71.2750794,3.25840988 70.9507636,3.25840988 L69.4913425,3.25840988 Z M16.5886247,9.56626667 L16.5886247,20.1681679 L13.6733008,20.1681679 L13.6733008,9.56626667 L9.64046275,9.56626667 L9.64046275,6.86804444 L20.6211429,6.86804444 L20.6211429,9.56626667 L16.5886247,9.56626667 Z M19.8462713,15.6651605 L25.6775587,15.6651605 L25.6775587,12.8911852 L19.8462713,12.8911852 L19.8462713,15.6651605 Z" id="Combined-Shape"></path>
            <path d="M33.9269818,16.1779704 L31.7121032,16.1779704 L31.7121032,20.1681679 L28.7964595,20.1681679 L28.7964595,6.86804444 L34.210998,6.86804444 C37.372917,6.86804444 39.2849089,8.74935309 39.2849089,11.4658716 L39.2849089,11.5040691 C39.2849089,14.5820198 36.8995567,16.1779704 33.9269818,16.1779704 L33.9269818,16.1779704 Z M36.3315243,11.5233284 C36.3315243,10.2124148 35.4225445,9.50913086 33.9647227,9.50913086 L31.7121032,9.50913086 L31.7121032,13.5750815 L34.0219737,13.5750815 C35.4794757,13.5750815 36.3315243,12.7010321 36.3315243,11.560884 L36.3315243,11.5233284 Z" id="Fill-56"></path>
            <path d="M49.4505777,20.1681679 L46.6104158,15.9121926 L44.3200555,15.9121926 L44.3200555,20.1681679 L41.4040919,20.1681679 L41.4040919,6.86804444 L47.4624644,6.86804444 C50.5863227,6.86804444 52.4605737,8.52113086 52.4605737,11.2569086 L52.4605737,11.2951062 C52.4605737,13.4421926 51.3059583,14.7909827 49.6207316,15.4181926 L52.8581324,20.1681679 L49.4505777,20.1681679 Z M49.5071891,11.4090568 C49.5071891,10.154958 48.63627,9.50913086 47.2165089,9.50913086 L44.3200555,9.50913086 L44.3200555,13.327921 L47.2734401,13.327921 C48.6932012,13.327921 49.5071891,12.5681432 49.5071891,11.4472543 L49.5071891,11.4090568 Z" id="Fill-58"></path>
            <path d="M61.4901457,20.3960049 C57.4006964,20.3960049 54.4661822,17.3369926 54.4661822,13.556079 L54.4661822,13.5182025 C54.4661822,9.73728889 57.4384372,6.64007901 61.5278866,6.64007901 C65.617336,6.64007901 68.5518502,9.69877037 68.5518502,13.4800049 L68.5518502,13.5182025 C68.5518502,17.299116 65.5792753,20.3960049 61.4901457,20.3960049 L61.4901457,20.3960049 Z M65.5034737,13.5182025 C65.5034737,11.2379062 63.8377571,9.33830123 61.4901457,9.33830123 C59.1425344,9.33830123 57.5142389,11.2000296 57.5142389,13.4800049 L57.5142389,13.5182025 C57.5142389,15.7981778 59.1805951,17.6981037 61.5278866,17.6981037 C63.875498,17.6981037 65.5034737,15.8360543 65.5034737,13.556079 L65.5034737,13.5182025 Z" id="Fill-60"></path>
        </g>
    </g>
</svg>